<svg width="23" height="17" fill="none" xmlns="http://www.w3.org/2000/svg"><path d="M11.717 16.013h-.006c-.648-.004-6.38-.056-8.004-.496a3.32 3.32 0 0 1-2.336-2.334C.946 11.588.973 8.516.976 8.27c-.003-.244-.03-3.34.394-4.949v-.004A3.39 3.39 0 0 1 3.706.968c.002-.002.005-.002.008-.003C5.32.543 11.061.49 11.711.487h.012c.65.004 6.396.057 8.005.496a3.32 3.32 0 0 1 2.334 2.332c.44 1.61.4 4.713.396 4.974.003.258.029 3.302-.394 4.905l-.001.005a3.322 3.322 0 0 1-2.338 2.335l-.005.001c-1.605.422-7.348.474-7.997.478h-.006ZM2.992 3.753c-.373 1.42-.338 4.476-.337 4.507v.022c-.012.848.028 3.303.337 4.466.15.557.592.998 1.152 1.149 1.199.324 5.867.426 7.573.438 1.71-.012 6.385-.111 7.575-.422.558-.152.998-.591 1.15-1.149.31-1.18.348-3.623.337-4.465v-.027c.016-.858-.015-3.342-.336-4.514v-.004c-.152-.559-.594-1-1.154-1.15-1.186-.325-5.862-.427-7.572-.439-1.71.012-6.38.111-7.573.422-.55.153-1.001.61-1.152 1.166Zm18.26 9.227ZM9.577 11.65V4.85l5.876 3.4-5.876 3.398Z" fill="#fff"/></svg>