<svg width="20" height="17" fill="none" xmlns="http://www.w3.org/2000/svg"><path d="M19.979 2.121a8.449 8.449 0 0 1-2.335.64 4.03 4.03 0 0 0 1.783-2.24 8.1 8.1 0 0 1-2.57.981 4.051 4.051 0 0 0-7.01 2.771c0 .322.027.63.094.925A11.47 11.47 0 0 1 1.587.958a4.08 4.08 0 0 0-.554 2.049c0 1.404.722 2.648 1.8 3.368a4.002 4.002 0 0 1-1.831-.5v.045a4.071 4.071 0 0 0 3.247 3.982c-.33.09-.69.134-1.063.134a3.58 3.58 0 0 1-.767-.07c.525 1.606 2.015 2.785 3.787 2.824a8.143 8.143 0 0 1-5.025 1.728c-.333 0-.651-.015-.97-.055a11.41 11.41 0 0 0 6.217 1.818c7.458 0 11.535-6.177 11.535-11.532 0-.18-.007-.352-.015-.524a8.084 8.084 0 0 0 2.03-2.104Z" fill="#fff"/></svg>