<svg width="21" height="21" fill="none" xmlns="http://www.w3.org/2000/svg"><path d="M20.787 6.158c-.046-1.056-.217-1.781-.462-2.41a4.847 4.847 0 0 0-1.148-1.762A4.89 4.89 0 0 0 17.419.841c-.633-.244-1.355-.415-2.41-.461C13.945.33 13.608.317 10.91.317S7.876.33 6.817.376C5.76.422 5.036.593 4.407.837a4.847 4.847 0 0 0-1.762 1.149A4.89 4.89 0 0 0 1.5 3.744c-.244.633-.415 1.354-.461 2.41-.05 1.063-.062 1.4-.062 4.098 0 2.697.011 3.034.058 4.094.046 1.055.217 1.78.462 2.41a4.898 4.898 0 0 0 1.148 1.761 4.889 4.889 0 0 0 1.758 1.145c.633.245 1.354.415 2.41.462 1.06.047 1.397.058 4.094.058s3.035-.011 4.094-.058c1.056-.047 1.781-.217 2.41-.462a5.082 5.082 0 0 0 2.907-2.906c.244-.633.415-1.355.461-2.41.047-1.06.058-1.397.058-4.094s-.003-3.035-.05-4.094Zm-1.789 8.11c-.043.97-.206 1.494-.341 1.843a3.295 3.295 0 0 1-1.886 1.886c-.35.136-.877.3-1.844.342-1.047.047-1.362.058-4.012.058-2.65 0-2.969-.011-4.013-.058-.97-.043-1.494-.206-1.843-.341a3.057 3.057 0 0 1-1.14-.742 3.089 3.089 0 0 1-.742-1.14c-.136-.35-.299-.878-.342-1.844-.046-1.048-.058-1.362-.058-4.013 0-2.65.012-2.968.058-4.012.043-.97.206-1.494.342-1.843.159-.431.411-.823.745-1.141.322-.33.71-.582 1.14-.741.35-.136.878-.3 1.844-.342 1.048-.046 1.362-.058 4.013-.058 2.654 0 2.968.012 4.012.058.97.043 1.494.206 1.844.342.43.159.822.41 1.14.74.33.323.582.71.742 1.142.136.349.298.877.341 1.843.047 1.048.058 1.362.058 4.012 0 2.65-.011 2.961-.058 4.01Z" fill="#fff"/><path d="M10.911 5.15a5.104 5.104 0 0 0-5.103 5.103 5.104 5.104 0 0 0 10.206 0 5.104 5.104 0 0 0-5.103-5.103Zm0 8.413a3.31 3.31 0 1 1 .001-6.622 3.31 3.31 0 0 1 0 6.622ZM17.407 4.947a1.191 1.191 0 1 1-2.383 0 1.191 1.191 0 0 1 2.383 0Z" fill="#fff"/></svg>