<svg width="100" height="149" fill="none" xmlns="http://www.w3.org/2000/svg"><path d="m48.563 84.5-.193 1.99.193-1.99Zm36.348 60.97a2 2 0 0 0 1.622-2.318l-3.128-17.726a2 2 0 0 0-3.94.695l2.781 15.757-15.756 2.781a2 2 0 1 0 .695 3.939l17.726-3.128ZM22.035.71C16.74 6.98 11.226 14.93 7.041 23.46 2.865 31.97-.054 41.19.001 49.962c.055 8.849 3.146 17.222 10.905 23.775 7.683 6.49 19.753 11.033 37.464 12.754l.387-3.982c-17.29-1.68-28.45-6.066-35.27-11.828C6.739 64.983 4.05 57.782 4 49.939c-.05-7.92 2.604-16.508 6.631-24.716 4.018-8.19 9.338-15.868 14.46-21.931L22.034.71ZM48.37 86.49c21.923 2.13 35.637.752 43.333-2.782 3.903-1.792 6.463-4.237 7.577-7.251 1.112-3.008.637-6.189-.707-9.157-2.652-5.855-8.981-11.592-16.043-15.616-7.064-4.025-15.37-6.627-22.244-5.665l.555 3.962c5.626-.788 13.007 1.36 19.709 5.179 6.704 3.82 12.219 9.02 14.379 13.79 1.062 2.344 1.236 4.398.6 6.12-.635 1.717-2.22 3.499-5.496 5.003-6.663 3.06-19.45 4.557-41.276 2.436l-.387 3.982Zm11.916-40.47C47.148 47.858 32.132 58.28 31.191 75.955c-.933 17.541 12.114 41.105 52.226 69.182l2.293-3.276c-39.888-27.923-51.34-50.36-50.524-65.693.809-15.2 13.792-24.528 25.655-26.188l-.555-3.962Z" fill="#FFBA07"/></svg>